<?xml version="1.0" standalone="no"?>
<!DOCTYPE svg PUBLIC "-//W3C//DTD SVG 20010904//EN"
 "http://www.w3.org/TR/2001/REC-SVG-20010904/DTD/svg10.dtd">
<svg version="1.0" xmlns="http://www.w3.org/2000/svg"
 width="1000.000000pt" height="623.000000pt" viewBox="0 0 1000.000000 623.000000"
 preserveAspectRatio="xMidYMid meet">

<g transform="translate(0.000000,623.000000) scale(0.100000,-0.100000)"
fill="#000000" stroke="none">
<path d="M4464 5303 l-530 -918 533 -3 c293 -1 773 -1 1066 0 l533 3 -528 915
c-291 503 -532 916 -536 918 -5 1 -247 -410 -538 -915z"/>
<path d="M1017 3996 c-3 -8 9 -45 27 -83 l33 -68 -173 -345 -173 -345 -306
-345 c-375 -422 -340 -386 -359 -371 -9 7 -23 11 -31 7 -12 -4 -15 -26 -15
-116 0 -109 0 -110 24 -110 27 0 36 16 36 69 0 35 18 58 262 334 145 162 264
294 266 292 2 -2 -67 -145 -155 -317 l-159 -313 -81 -3 c-63 -2 -83 -6 -87
-19 -17 -44 -38 -43 980 -43 918 0 964 1 973 18 16 30 -2 41 -74 44 l-70 3
-158 314 c-87 172 -157 315 -155 317 2 2 122 -130 266 -293 245 -276 262 -298
262 -333 0 -53 8 -70 35 -70 30 0 35 16 35 114 0 98 -15 130 -51 108 -18 -12
-24 -12 -35 0 -7 7 -153 171 -324 363 l-311 350 -173 345 -174 345 29 55 c15
30 28 67 29 83 0 22 -4 27 -25 27 -19 0 -30 -10 -49 -47 l-24 -48 -23 48 c-17
35 -29 47 -45 47 -12 0 -24 -6 -27 -14z m634 -1288 c115 -230 209 -420 209
-423 0 -3 -85 -5 -190 -5 l-190 0 -172 343 c-141 278 -177 342 -193 342 -16 0
-52 -64 -193 -342 l-172 -343 -190 0 c-105 0 -190 3 -190 6 0 3 167 339 371
746 l372 740 164 -323 c91 -178 259 -512 374 -741z m-350 -210 c54 -109 99
-202 99 -208 0 -6 -100 -10 -285 -10 -185 0 -285 4 -285 10 0 6 63 137 141
292 l141 281 45 -84 c25 -46 90 -173 144 -281z"/>
<path d="M2775 3954 c-16 -14 -39 -34 -51 -44 -37 -34 -115 -157 -143 -227
-16 -37 -39 -90 -53 -118 -50 -99 -81 -206 -82 -281 -1 -60 4 -79 29 -129 43
-84 69 -100 163 -100 71 0 81 3 127 34 67 46 162 138 189 181 31 49 48 114 41
153 -6 32 -5 34 37 46 24 7 56 17 72 22 45 14 46 13 46 -45 0 -39 6 -62 23
-87 23 -34 24 -34 96 -33 50 1 77 7 89 18 10 8 39 25 64 36 26 11 57 33 68 48
l22 27 -22 3 c-12 2 -54 -10 -94 -26 -134 -57 -166 -50 -166 37 0 48 0 48 43
60 23 7 62 13 87 14 36 2 47 7 57 27 10 20 9 27 -5 43 -14 16 -25 18 -67 12
-27 -3 -61 -9 -73 -12 -22 -5 -24 -3 -22 33 4 83 1 93 -25 100 -16 4 -35 0
-51 -11 -21 -13 -25 -22 -20 -43 4 -15 8 -46 11 -69 l3 -42 -91 -21 c-51 -12
-105 -25 -122 -31 -110 -35 -290 -79 -324 -79 -61 0 -89 -40 -58 -82 9 -11 24
-15 48 -13 39 4 275 71 301 85 21 12 50 2 41 -13 -4 -7 -8 -19 -8 -28 -1 -10
-17 -43 -36 -74 -85 -143 -272 -240 -341 -179 -33 30 -58 94 -58 151 0 59 80
290 133 383 40 70 100 136 143 156 47 22 84 59 84 84 0 62 -52 79 -105 34z"/>
<path d="M7144 3947 c-51 -40 -136 -155 -170 -233 -14 -32 -39 -88 -56 -124
-101 -218 -117 -329 -63 -435 43 -84 69 -100 163 -100 71 0 81 3 127 34 67 46
162 138 189 181 31 49 46 109 40 150 -5 33 -4 36 28 47 18 6 58 17 88 24 30 7
59 16 65 21 26 23 35 7 35 -62 0 -94 18 -156 54 -187 34 -28 47 -26 59 10 6
20 5 31 -7 42 -32 32 -53 192 -28 217 4 4 32 9 62 11 47 2 56 6 67 27 10 20 9
27 -5 43 -14 16 -25 18 -69 12 -59 -7 -71 6 -25 28 49 26 246 47 286 31 31
-12 15 -43 -55 -106 -184 -163 -194 -178 -145 -235 23 -27 28 -28 118 -28 51
0 140 9 196 19 62 11 107 15 110 10 4 -5 20 -18 35 -28 42 -26 129 -14 218 31
109 54 145 114 168 275 8 57 7 66 -12 95 -65 97 -185 67 -333 -83 -82 -83
-119 -149 -111 -198 l5 -33 -141 -15 c-179 -19 -219 -8 -164 45 13 12 56 51
96 86 70 62 121 138 121 182 0 25 -42 56 -86 64 -50 8 -221 -10 -288 -30 -28
-8 -58 -12 -69 -9 -10 3 -26 -1 -35 -9 -9 -8 -41 -25 -69 -37 -57 -24 -69 -51
-36 -75 14 -11 23 -10 45 1 34 17 48 18 48 1 0 -8 -36 -21 -97 -36 -54 -12
-120 -29 -148 -37 -219 -62 -309 -84 -344 -84 -61 0 -89 -40 -58 -82 9 -11 24
-15 48 -13 39 4 275 71 301 85 21 12 50 2 41 -14 -4 -6 -9 -20 -10 -30 -6 -34
-73 -134 -117 -173 -96 -84 -211 -119 -257 -77 -36 33 -59 89 -59 148 0 62 79
291 133 386 40 70 100 136 143 156 47 22 84 59 84 84 0 66 -51 77 -116 27z
m1365 -271 c7 -8 23 -17 36 -20 30 -8 31 -22 9 -97 -19 -64 -52 -111 -103
-145 -35 -23 -40 -23 -66 -10 -19 10 -44 13 -77 9 l-48 -6 0 33 c0 63 99 182
190 231 43 22 45 22 59 5z"/>
<path d="M9503 3830 c-13 -5 -24 -21 -28 -42 -17 -81 -117 -369 -141 -405 -30
-46 -35 -35 -78 164 -26 116 -57 203 -75 203 -21 0 -22 -23 -3 -68 21 -48 72
-310 72 -367 0 -23 7 -35 24 -44 43 -23 90 19 131 119 30 73 69 188 79 237 4
18 21 49 37 69 29 36 38 89 23 128 -7 18 -10 18 -41 6z"/>
<path d="M3717 3813 c-2 -4 -10 -26 -17 -48 -34 -104 -145 -311 -206 -384 -70
-83 -82 -131 -31 -131 16 0 33 13 53 41 45 63 53 69 87 69 18 0 48 4 67 9 19
5 61 12 92 15 l58 5 22 -39 c13 -21 33 -44 46 -50 24 -11 99 -4 119 12 8 6 13
0 18 -22 6 -26 11 -30 39 -30 25 0 36 6 46 25 12 22 11 27 -5 39 -16 11 -17
23 -12 93 10 116 19 173 28 179 5 3 9 -3 9 -13 0 -25 56 -133 77 -149 38 -29
144 -9 194 36 9 8 28 24 43 35 14 11 40 42 56 69 17 26 33 46 36 43 3 -3 -2
-52 -12 -110 -16 -100 -16 -109 0 -150 21 -55 41 -62 107 -35 60 25 65 48 10
48 -57 0 -64 32 -35 177 17 86 13 176 -9 207 -7 9 -25 18 -40 19 -25 2 -30 -4
-50 -53 -40 -96 -102 -177 -157 -205 -64 -32 -74 -32 -104 8 -24 32 -35 66
-56 170 -8 41 -16 57 -28 58 -23 1 -86 -2 -89 -5 -11 -10 -66 -384 -58 -396 3
-5 -7 -5 -26 0 -18 5 -35 7 -39 5 -4 -3 -15 4 -25 15 -17 19 -17 20 2 20 12 0
24 7 27 16 9 23 8 24 -17 24 -51 0 -60 19 -118 265 -12 55 -25 103 -29 106 -9
11 -68 21 -73 12z m58 -258 c14 -53 25 -103 25 -111 0 -11 -20 -14 -90 -14
-49 0 -90 3 -90 8 -1 21 116 238 122 227 4 -6 19 -56 33 -110z"/>
<path d="M6197 3785 c-47 -24 -89 -64 -140 -130 -90 -117 -103 -212 -37 -280
53 -54 107 -68 230 -56 l103 10 21 -27 c37 -47 57 -63 74 -60 23 4 28 54 8 74
-9 8 -19 27 -22 42 -4 15 -12 32 -20 38 -17 13 -41 152 -28 163 14 14 158 59
226 72 35 6 73 13 86 15 17 4 22 10 20 27 -6 44 -106 32 -353 -42 -202 -60
-210 -64 -213 -99 -4 -40 12 -41 103 -7 48 18 67 21 70 12 8 -29 13 -147 6
-151 -4 -3 -44 -8 -88 -12 -67 -6 -86 -3 -124 13 -61 27 -77 63 -60 137 18 81
126 189 204 205 27 6 32 11 32 36 0 27 -3 30 -35 33 -19 1 -48 -4 -63 -13z"/>
<path d="M8932 3755 c-112 -52 -246 -188 -270 -276 -14 -53 13 -127 59 -157
30 -21 41 -23 93 -17 75 8 174 54 220 101 22 23 41 56 51 92 10 32 21 70 26
86 19 61 11 110 -23 149 -45 48 -87 54 -156 22z m58 -74 c0 -5 14 -14 30 -20
26 -8 30 -15 30 -45 0 -83 -58 -174 -134 -213 -97 -49 -186 -23 -172 51 14 70
100 167 191 214 45 24 55 26 55 13z"/>
<path d="M5834 3714 c3 -30 8 -59 10 -63 8 -12 18 -132 19 -208 0 -65 -16
-134 -32 -133 -29 2 -107 81 -148 150 -27 45 -73 184 -73 219 0 47 -37 77 -72
59 -14 -7 -18 -21 -18 -61 0 -52 -20 -170 -40 -237 -25 -84 -31 -152 -20 -201
14 -55 28 -64 76 -44 39 16 41 21 17 48 -21 23 -22 117 -1 185 15 51 28 55 48
16 8 -16 18 -31 21 -34 3 -3 12 -16 18 -28 24 -45 85 -104 134 -129 56 -28 73
-24 124 29 27 28 28 33 28 126 -1 53 -6 133 -12 177 -9 65 -8 84 3 102 22 35
17 53 -21 69 -61 25 -67 21 -61 -42z"/>
<path d="M4955 3731 c-190 -41 -264 -80 -265 -139 0 -16 7 -26 20 -29 19 -5
20 -13 19 -123 -2 -97 1 -124 17 -156 17 -35 23 -39 56 -38 76 2 117 64 43 64
-28 0 -33 4 -39 31 -10 53 -5 212 8 249 19 52 81 73 212 74 119 1 142 -9 120
-53 -15 -27 -110 -85 -228 -136 -54 -24 -68 -34 -68 -52 0 -18 6 -23 25 -23
31 0 261 111 295 142 102 93 92 156 -30 190 -69 20 -87 20 -185 -1z"/>
<path d="M9725 3741 c-51 -9 -125 -39 -125 -52 0 -4 -9 -9 -20 -12 -17 -4 -20
-14 -20 -60 0 -31 -5 -68 -10 -82 -18 -46 -14 -219 6 -260 40 -85 160 -86 245
-1 37 37 74 109 66 130 -11 27 -50 16 -66 -19 -7 -16 -21 -38 -30 -48 -17 -20
-87 -57 -108 -57 -23 0 -46 50 -50 111 -4 66 6 89 41 89 52 1 208 47 218 64
18 33 -3 39 -93 27 -45 -6 -97 -11 -116 -11 -31 0 -33 2 -33 34 0 18 6 38 13
43 30 24 148 55 234 60 97 6 125 15 107 33 -14 14 -194 21 -259 11z"/>
<path d="M5314 3709 c-3 -6 -6 -35 -5 -64 0 -29 -3 -76 -9 -103 -20 -108 17
-197 79 -190 34 4 38 31 9 60 -21 21 -23 29 -19 108 8 152 7 180 -9 190 -20
13 -37 12 -46 -1z"/>
<path d="M2543 2809 c-44 -13 -80 -60 -89 -114 -3 -25 -5 -87 -2 -138 3 -74 8
-100 26 -129 40 -65 125 -74 205 -22 l37 24 0 -25 c0 -16 6 -25 15 -25 13 0
15 21 15 125 0 118 -1 125 -20 125 -19 0 -20 -7 -20 -89 l0 -89 -43 -21 c-57
-28 -99 -27 -134 3 -27 23 -28 28 -31 132 -6 187 18 219 164 212 63 -3 74 -1
74 13 0 28 -124 39 -197 18z"/>
<path d="M3050 2617 c0 -182 2 -206 18 -219 25 -22 50 -29 78 -22 32 8 31 34
0 34 -52 0 -56 15 -56 221 0 182 -1 189 -20 189 -19 0 -20 -7 -20 -203z"/>
<path d="M7144 2800 c-62 -31 -79 -77 -78 -210 0 -74 5 -116 17 -142 18 -42
68 -78 110 -78 32 0 94 24 119 47 16 14 18 13 24 -11 3 -14 12 -26 20 -26 11
0 14 25 14 125 0 118 -1 125 -20 125 -19 0 -20 -7 -20 -89 l0 -89 -43 -21
c-70 -34 -134 -23 -156 27 -33 71 -24 245 14 290 22 25 29 27 119 30 69 3 96
7 96 17 0 31 -156 34 -216 5z"/>
<path d="M5282 2783 c2 -20 9 -28 23 -28 14 0 21 8 23 28 3 23 0 27 -23 27
-23 0 -26 -4 -23 -27z"/>
<path d="M3468 2683 c-24 -3 -38 -9 -38 -19 0 -11 18 -14 90 -14 97 0 110 -7
110 -64 0 -26 0 -26 -88 -26 -80 0 -91 -2 -110 -23 -30 -32 -30 -97 1 -131 35
-39 74 -41 140 -8 l57 29 6 -23 c4 -13 12 -24 20 -24 11 0 14 25 14 129 0 163
-6 174 -101 177 -35 1 -81 0 -101 -3z m160 -190 c-3 -34 -8 -41 -48 -60 -49
-25 -90 -29 -108 -11 -16 16 -16 95 1 101 6 3 45 6 85 6 l73 1 -3 -37z"/>
<path d="M4091 2679 c-13 -5 -36 -18 -51 -29 l-29 -20 -3 22 c-2 13 -11 24
-20 26 -17 3 -18 -9 -18 -147 0 -143 1 -151 20 -151 18 0 20 8 22 112 l3 112
35 24 c25 17 45 22 75 20 l40 -3 3 -132 3 -133 24 0 25 0 0 114 0 114 34 21
c43 27 102 28 116 2 5 -11 10 -72 10 -135 0 -109 1 -116 20 -116 19 0 20 7 20
134 l0 135 -27 21 c-35 28 -85 23 -139 -14 -37 -25 -39 -25 -46 -7 -13 37 -66
51 -117 30z"/>
<path d="M4841 2679 c-13 -5 -36 -18 -52 -30 l-29 -20 0 25 c0 19 -5 26 -20
26 -19 0 -20 -7 -20 -215 0 -208 1 -215 20 -215 18 0 20 7 20 76 0 75 1 76 23
69 86 -26 99 -27 138 -16 53 16 72 55 72 146 0 135 -57 192 -152 154z m76 -37
c19 -12 33 -60 33 -112 0 -52 -14 -100 -33 -112 -17 -11 -76 -10 -119 3 l-38
10 0 84 c0 80 1 84 28 103 15 10 34 22 42 25 22 8 73 8 87 -1z"/>
<path d="M5728 2661 l-58 -30 0 25 c0 17 -5 24 -20 24 -19 0 -20 -7 -20 -150
0 -143 1 -150 20 -150 18 0 20 8 22 112 l3 112 40 23 c44 25 104 30 123 11 8
-8 12 -53 12 -135 0 -116 1 -123 20 -123 19 0 20 7 20 133 0 152 -5 166 -65
174 -32 4 -52 -2 -97 -26z"/>
<path d="M6232 2676 c-53 -24 -67 -102 -26 -147 13 -14 13 -20 2 -38 -9 -15
-10 -28 -2 -49 10 -25 8 -31 -13 -50 -31 -27 -32 -83 -1 -111 28 -27 74 -35
155 -28 81 6 108 28 108 87 0 58 -24 76 -123 93 -91 16 -107 25 -98 55 6 16
13 18 55 14 103 -10 159 33 148 113 -6 40 -5 45 13 45 11 0 20 5 20 10 0 6
-13 10 -28 10 -16 0 -62 2 -103 5 -54 4 -83 1 -107 -9z m132 -26 c56 -21 43
-104 -19 -116 -83 -15 -136 20 -121 81 10 40 81 58 140 35z m6 -259 c31 -6 35
-11 38 -40 5 -51 -10 -61 -94 -61 -53 0 -77 4 -88 16 -20 20 -20 53 0 82 17
24 34 24 144 3z"/>
<path d="M7756 2661 l-56 -30 0 25 c0 17 -5 24 -20 24 -19 0 -20 -7 -20 -150
l0 -150 25 0 24 0 3 118 3 117 65 22 c39 13 66 28 68 37 5 25 -29 20 -92 -13z"/>
<path d="M8152 2675 c-42 -18 -62 -65 -62 -145 0 -120 48 -168 156 -157 96 10
119 41 119 161 0 93 -16 128 -67 145 -42 15 -106 13 -146 -4z m148 -45 c17
-17 20 -33 20 -100 0 -100 -15 -120 -88 -120 -63 0 -83 16 -92 73 -9 63 3 137
26 154 28 21 110 17 134 -7z"/>
<path d="M8723 2683 c-74 -14 -110 -180 -57 -261 31 -48 122 -66 189 -38 47
20 65 60 65 146 0 86 -18 126 -65 146 -33 13 -85 16 -132 7z m128 -52 c22 -17
24 -27 24 -101 0 -74 -2 -84 -24 -101 -16 -13 -39 -19 -71 -19 -41 0 -52 4
-69 26 -35 45 -27 180 13 206 23 16 103 8 127 -11z"/>
<path d="M9783 2675 c-44 -19 -63 -61 -63 -138 0 -107 23 -145 98 -162 49 -10
152 4 152 21 0 11 -18 14 -80 14 -67 0 -83 3 -100 20 -11 11 -20 26 -20 34 0
8 -3 21 -6 30 -5 14 6 16 85 16 78 0 94 3 111 20 22 22 27 79 9 112 -23 43
-122 61 -186 33z m139 -42 c20 -18 23 -45 8 -74 -9 -16 -22 -19 -91 -19 l-81
0 7 38 c10 56 30 72 88 72 33 0 57 -6 69 -17z"/>
<path d="M5280 2530 l0 -150 25 0 25 0 0 150 0 150 -25 0 -25 0 0 -150z"/>
<path d="M9194 2618 c89 -235 88 -233 126 -233 38 0 37 -2 126 233 l23 62 -23
0 c-21 0 -28 -13 -65 -122 -47 -139 -57 -159 -69 -141 -4 7 -27 69 -51 138
-39 112 -46 125 -67 125 l-23 0 23 -62z"/>
<path d="M2452 1818 c-51 -84 -1033 -1790 -1038 -1803 -6 -13 391 -15 3585
-15 1975 0 3591 3 3591 8 0 4 -238 419 -529 922 l-529 915 -2530 3 -2530 2
-20 -32z"/>
</g>
</svg>
